<svg id="Layer_1" data-name="Layer 1" xmlns="http://www.w3.org/2000/svg" viewBox="0 0 260 260"><defs><style>.cls-1{fill:#fff;}.cls-2{fill:none;}.cls-3{fill:#e51c6c;}.cls-4{fill:#09f;}.cls-5{fill:#e61a6c;}</style></defs><title>means-business-academy-favicon-260px-type1</title><path class="cls-1" d="M130.5,260C58.82,260,.5,201.63.5,130a130,130,0,0,1,260,0C260.5,201.63,202.18,260,130.5,260Zm0-248.45A118.45,118.45,0,1,0,248.94,130,118.58,118.58,0,0,0,130.5,11.5Z" transform="translate(-0.5 0.05)"/><rect class="cls-2" x="26.21" y="13.67" width="229.91" height="229.91"/><polygon class="cls-3" points="150.55 178.24 150.55 170.64 151.85 178.96 150.55 178.24"/><rect class="cls-4" x="40.81" y="39.01" width="50.04" height="148.52"/><path class="cls-4" d="M91.71,187.82H41V38.6H91.71Zm-50-.7H91V39.31H41.67Z" transform="translate(-0.5 0.05)"/><path class="cls-4" d="M180.25,160.25a3.77,3.77,0,0,1,.38-1.33c3.59-7.18,13.31-10.56,21.12-9.27V65.79H151.7V167.24c1.62-.15,3.56.86,3.82,2.55a34.66,34.66,0,0,0,.64,4.68,50.8,50.8,0,0,0,2,4.94c.74,1.77-.8,3.88-2.46,4.34a3.47,3.47,0,0,1-4-1.74v32.3h33.54a4.34,4.34,0,0,1-.07-.52,3.57,3.57,0,0,1,3.53-3.53c1.93,0,3.86,0,5.8,0a3.24,3.24,0,0,1,1,.18c2.06,0,4.14.09,6.21.21v-23c-2.21,1.45-4.89,1.54-7.59,1.22-4.62-.56-9.76-2.71-12-6.62-3.77-3-6.31-7.76-6.06-12.35A15.39,15.39,0,0,1,180.25,160.25Z" transform="translate(-0.5 0.05)"/><path class="cls-4" d="M185.24,214.66H151.35V180.77l.65,1.06a3.13,3.13,0,0,0,3.57,1.58,3.53,3.53,0,0,0,2.1-1.84,2.47,2.47,0,0,0,.14-2c-.19-.43-.37-.87-.56-1.3a32,32,0,0,1-1.43-3.67,15.55,15.55,0,0,1-.47-3c0-.57-.1-1.15-.18-1.7-.23-1.5-2-2.4-3.43-2.26l-.39,0V65.44H202.1v84.63l-.41-.07c-7.36-1.22-17.13,1.84-20.74,9.07a3.56,3.56,0,0,0-.35,1.21v.12l-.08.08a15.1,15.1,0,0,0-4.06,9.4c-.23,4.3,2.1,9,5.93,12.06l.09.1c2.28,4,7.56,6,11.73,6.45,3.26.39,5.53,0,7.35-1.17l.55-.36v24l-.37,0c-2-.11-4.13-.18-6.19-.21l-.1,0a3,3,0,0,0-.94-.16h0l-2.9,0-2.9,0a3.34,3.34,0,0,0-2.34,1,2.9,2.9,0,0,0-.84,2.11c0,.16,0,.3.06.45l.08.42Zm-33.18-.7h32.77a.76.76,0,0,1,0-.15,3.56,3.56,0,0,1,1-2.64,4,4,0,0,1,2.85-1.26c1,0,1.93,0,2.89,0l2.91,0a4,4,0,0,1,1.1.18c1.93,0,3.88.09,5.8.19v-22a12.24,12.24,0,0,1-7.28.95c-4.33-.52-9.8-2.56-12.23-6.74-4-3.16-6.39-8.1-6.14-12.6a15.84,15.84,0,0,1,4.16-9.76,4.35,4.35,0,0,1,.41-1.33c3.69-7.4,13.51-10.61,21.08-9.52V66.14H152.06V166.87a3.78,3.78,0,0,1,3.81,2.87c.09.57.14,1.17.19,1.75a13.72,13.72,0,0,0,.44,2.88,32,32,0,0,0,1.39,3.59l.57,1.31a3.16,3.16,0,0,1-.16,2.61,4.27,4.27,0,0,1-2.54,2.21,3.64,3.64,0,0,1-3.7-1Z" transform="translate(-0.5 0.05)"/><rect class="cls-4" x="95.66" y="65.89" width="50.04" height="148.52"/><path class="cls-4" d="M146.55,214.7H95.8V65.48h50.75Zm-50-.7h49.34V66.19H96.51Z" transform="translate(-0.5 0.05)"/><path class="cls-3" d="M196.66,214.65A45.62,45.62,0,1,1,242.29,169,45.67,45.67,0,0,1,196.66,214.65Zm0-63A17.4,17.4,0,1,0,214.07,169,17.43,17.43,0,0,0,196.66,151.63Z" transform="translate(-0.5 0.05)"/><polygon class="cls-5" points="150.55 177.02 150.55 214.76 186.93 214.76 150.55 177.02"/><polygon class="cls-3" points="186.93 214.76 196.55 214.71 185.7 213.48 186.93 214.76"/></svg>