<?xml version="1.0" standalone="no"?>
<!DOCTYPE svg PUBLIC "-//W3C//DTD SVG 20010904//EN"
 "http://www.w3.org/TR/2001/REC-SVG-20010904/DTD/svg10.dtd">
<svg version="1.0" xmlns="http://www.w3.org/2000/svg"
 width="921.000000pt" height="921.000000pt" viewBox="0 0 921.000000 921.000000"
 preserveAspectRatio="xMidYMid meet">
<metadata>
Created by potrace 1.11, written by Peter Selinger 2001-2013
</metadata>
<g transform="translate(0.000000,921.000000) scale(0.100000,-0.100000)"
fill="#000000" stroke="none">
<path d="M4447 9204 c-1 -1 -58 -5 -127 -8 -69 -4 -138 -9 -155 -11 -16 -2
-55 -6 -85 -9 -88 -8 -310 -44 -415 -67 -401 -87 -718 -196 -1070 -368 -395
-194 -719 -411 -1055 -706 -101 -89 -351 -348 -449 -465 -144 -172 -391 -510
-391 -535 0 -4 -13 -26 -29 -49 -25 -36 -181 -313 -181 -321 0 -2 -25 -55 -55
-118 -46 -98 -152 -351 -160 -382 -1 -5 -5 -17 -8 -25 -19 -46 -91 -284 -121
-400 -32 -124 -66 -286 -80 -385 -3 -22 -9 -53 -12 -68 -7 -35 -11 -61 -19
-152 -4 -38 -9 -81 -11 -95 -23 -147 -23 -680 1 -870 1 -14 6 -55 9 -92 4 -37
9 -77 11 -90 2 -13 6 -41 10 -63 99 -686 379 -1385 781 -1956 46 -66 89 -126
94 -132 6 -7 40 -50 77 -97 133 -169 368 -419 538 -570 395 -353 865 -643
1375 -848 274 -111 736 -235 989 -267 30 -4 61 -8 70 -10 9 -1 45 -6 81 -10
36 -3 81 -8 100 -10 196 -21 592 -26 770 -11 52 5 109 10 125 11 41 3 144 15
180 21 17 2 44 6 60 9 17 2 50 7 75 10 68 10 301 62 430 96 662 175 1288 509
1823 972 166 144 433 418 529 543 12 16 25 31 28 34 36 30 283 379 360 510
158 266 255 462 355 720 58 148 102 281 145 435 39 138 65 247 76 319 3 22 7
43 9 46 2 3 6 26 10 50 3 25 8 52 10 60 2 8 7 35 10 60 3 25 8 56 10 70 2 14
7 54 10 90 4 36 9 72 10 80 24 128 24 750 0 910 -2 14 -7 54 -10 90 -27 272
-128 703 -233 995 -82 228 -224 540 -321 703 -17 29 -31 55 -31 57 0 10 -183
292 -243 375 -281 390 -626 741 -1007 1022 -405 299 -811 510 -1290 671 -183
61 -502 142 -645 162 -22 4 -47 8 -55 10 -8 2 -37 7 -65 10 -27 3 -61 8 -75
10 -50 9 -170 21 -300 31 -84 6 -457 13 -463 8z m423 -418 c58 -4 121 -9 140
-11 19 -2 60 -7 90 -10 49 -6 120 -16 215 -31 17 -2 53 -9 80 -14 28 -6 59
-12 70 -14 78 -15 295 -73 402 -108 70 -23 130 -42 133 -43 3 -1 14 -5 25 -9
358 -135 644 -282 935 -480 894 -607 1532 -1559 1745 -2601 23 -110 22 -105
30 -155 4 -25 9 -54 11 -65 6 -30 13 -83 20 -150 3 -33 7 -71 10 -85 22 -139
22 -690 0 -820 -3 -14 -10 -69 -16 -124 -7 -54 -14 -108 -16 -120 -4 -20 -17
-94 -30 -161 -15 -83 -70 -302 -98 -390 -2 -5 -11 -38 -21 -72 -21 -71 -35
-81 -36 -25 -4 253 -106 571 -258 802 -60 92 -64 98 -130 174 -231 270 -575
470 -911 531 -52 9 -101 19 -107 21 -10 3 -13 218 -13 1032 l0 1029 -899 0
-898 0 -3 -1761 c-2 -969 -3 -2157 -4 -2641 l-1 -880 845 0 c937 1 982 3 1165
50 99 26 283 95 323 121 56 37 25 -3 -95 -123 -117 -117 -211 -204 -303 -279
-19 -16 -37 -31 -40 -34 -27 -31 -278 -206 -460 -322 -190 -120 -546 -288
-790 -372 -101 -34 -338 -105 -373 -112 -16 -2 -66 -13 -110 -24 -45 -10 -102
-21 -127 -25 -24 -4 -47 -8 -50 -10 -3 -2 -29 -6 -59 -10 -30 -4 -61 -8 -70
-10 -9 -1 -47 -6 -86 -10 -38 -4 -79 -9 -90 -11 -117 -23 -708 -21 -827 1 -11
2 -47 7 -81 10 -35 3 -71 7 -82 9 -11 2 -41 6 -66 10 -112 16 -253 46 -409 87
-638 165 -1225 480 -1730 927 -100 89 -284 275 -361 365 -34 39 -65 74 -68 77
-4 3 -22 25 -41 50 -19 25 -37 47 -40 50 -14 13 -124 166 -190 265 -193 289
-354 609 -470 940 -71 199 -156 533 -175 680 -3 22 -7 47 -10 55 -2 8 -6 36
-9 63 -3 26 -8 66 -11 90 -40 312 -35 812 10 1067 6 36 16 97 19 125 6 40 33
175 52 254 9 36 17 72 19 80 27 139 197 611 275 761 10 19 35 68 55 109 83
166 306 522 380 607 6 7 46 57 90 112 44 55 82 99 85 97 3 -2 5 -1075 5 -2384
0 -1310 2 -2382 5 -2382 3 -1 406 -2 897 -3 787 -1 892 1 895 14 2 8 4 1196 3
2640 l0 2625 -639 2 c-351 1 -640 3 -642 5 -10 10 357 272 489 349 144 84 182
105 336 181 169 82 479 208 551 223 3 1 37 11 75 23 146 45 380 100 500 117
22 3 65 10 95 15 124 20 194 27 380 35 80 4 146 8 147 9 4 3 244 -2 343 -8z
m2234 -4972 c219 -60 389 -237 441 -458 20 -87 14 -243 -13 -323 -45 -130
-124 -236 -235 -313 -246 -174 -577 -143 -788 73 -192 196 -230 502 -92 736
141 239 423 356 687 285z"/>
<path d="M3379 6866 c-4 -121 0 -5246 4 -5252 3 -5 393 -9 899 -9 l893 0 0
2640 0 2640 -897 1 -898 1 -1 -21z"/>
</g>
</svg>
